<?xml version="1.0" encoding="utf-8"?>
<!-- Generator: Adobe Illustrator 15.0.0, SVG Export Plug-In . SVG Version: 6.00 Build 0)  -->
<!DOCTYPE svg PUBLIC "-//W3C//DTD SVG 1.0//EN" "http://www.w3.org/TR/2001/REC-SVG-20010904/DTD/svg10.dtd">
<svg version="1.0" id="Layer_1" xmlns="http://www.w3.org/2000/svg" xmlns:xlink="http://www.w3.org/1999/xlink" x="0px" y="0px"
	 width="235px" height="54px" viewBox="0 0 235 54" enable-background="new 0 0 235 54" xml:space="preserve">
<path d="M19.162,32.311L7.332,6.547V27.01c0,1.873,0.204,3.037,0.62,3.502c0.542,0.641,1.416,0.955,2.635,0.955h1.063v0.844H1
	v-0.844h1.09c1.292,0,2.201-0.391,2.75-1.174c0.337-0.473,0.503-1.564,0.503-3.283V7.024c0-1.364-0.153-2.344-0.447-2.942
	c-0.21-0.429-0.599-0.794-1.164-1.094C3.158,2.689,2.247,2.538,1,2.538V1.696h8.66l11.126,23.966L31.692,1.696h8.663v0.842h-1.065
	c-1.313,0-2.236,0.393-2.777,1.179c-0.322,0.486-0.478,1.591-0.478,3.307V27.01c0,1.873,0.204,3.037,0.62,3.502
	c0.56,0.641,1.438,0.955,2.634,0.955h1.065v0.844H27.376v-0.844h1.064c1.307,0,2.226-0.391,2.749-1.174
	c0.335-0.473,0.503-1.564,0.503-3.283V6.547L19.894,32.311H19.162z"/>
<path d="M64.786,22.081H52.962l-2.074,4.816c-0.527,1.182-0.785,2.066-0.785,2.666c0,0.471,0.221,0.879,0.669,1.234
	c0.447,0.355,1.409,0.578,2.887,0.67v0.844h-9.641v-0.844c1.267-0.225,2.087-0.512,2.467-0.865c0.764-0.736,1.613-2.197,2.548-4.404
	L59.801,1h0.81l10.651,25.479c0.842,2.039,1.61,3.359,2.316,3.967c0.698,0.609,1.672,0.945,2.927,1.021v0.844H64.423v-0.844
	c1.235-0.055,2.061-0.256,2.482-0.604c0.421-0.34,0.631-0.77,0.631-1.277c0-0.65-0.302-1.689-0.899-3.107L64.786,22.081z
	 M64.173,20.393L58.984,8.034l-5.326,12.359H64.173z"/>
<path d="M93.965,1.696h10.651v0.842h-0.562c-0.392,0-0.967,0.178-1.721,0.521c-0.758,0.348-1.448,0.839-2.062,1.483
	c-0.616,0.645-1.373,1.708-2.273,3.181L90.63,19.331v7.679c0,1.873,0.205,3.037,0.616,3.502c0.57,0.641,1.484,0.955,2.719,0.955
	h0.979v0.844H81.939v-0.844h1.093c1.289,0,2.202-0.391,2.75-1.174c0.333-0.473,0.5-1.564,0.5-3.283V19.75L77.903,6.941
	c-1.011-1.495-1.689-2.431-2.035-2.819C75.52,3.74,74.79,3.287,73.671,2.764c-0.303-0.146-0.744-0.226-1.321-0.226V1.696h13.091
	v0.842H84.77c-0.711,0-1.36,0.171-1.946,0.506c-0.592,0.336-0.885,0.834-0.885,1.485c0,0.545,0.454,1.523,1.376,2.944l6.387,9.838
	l6-9.419c0.898-1.42,1.347-2.475,1.347-3.166c0-0.41-0.11-0.785-0.321-1.119c-0.216-0.34-0.535-0.6-0.94-0.789
	c-0.416-0.184-1.022-0.28-1.822-0.28V1.696z"/>
<path d="M130.154,12.603h9.477v0.84c-1.314,0.112-2.283,0.403-2.906,0.871c-0.629,0.469-1.594,1.896-2.908,4.286
	c-1.322,2.396-2.813,4.629-4.477,6.7c1.346,1.567,2.545,2.668,3.604,3.292c1.053,0.629,2.115,0.939,3.18,0.939
	c1.023,0,1.91-0.281,2.641-0.842c0.727-0.557,1.236-1.387,1.535-2.492l0.816,0.615c-0.549,2.113-1.43,3.676-2.66,4.684
	c-1.234,1.01-2.686,1.518-4.324,1.518c-1.23,0-2.482-0.342-3.754-1.016c-1.271-0.67-2.66-1.799-4.174-3.391
	c-1.854,1.664-3.535,2.814-5.035,3.447c-1.506,0.633-3.109,0.959-4.803,0.959c-2.467,0-4.437-0.668-5.9-1.998
	c-1.472-1.32-2.204-2.902-2.204-4.732c0-1.812,0.653-3.626,1.962-5.441c1.304-1.811,3.77-3.688,7.401-5.632
	c-0.717-1.571-1.198-2.854-1.457-3.853c-0.265-1.001-0.395-1.958-0.395-2.877c0-2.576,0.955-4.538,2.861-5.884
	C120.104,1.53,121.777,1,123.648,1c1.799,0,3.254,0.53,4.393,1.596c1.125,1.064,1.691,2.375,1.691,3.923
	c0,1.593-0.547,2.986-1.637,4.191c-1.096,1.207-3.025,2.52-5.791,3.938c1.908,3.403,3.898,6.525,5.971,9.364
	c2.65-3.158,3.982-5.822,3.982-7.992c0-0.688-0.225-1.305-0.674-1.846c-0.34-0.413-0.813-0.654-1.43-0.731V12.603z M125.023,27.289
	c-1.98-2.705-3.355-4.682-4.119-5.926c-0.77-1.24-1.615-2.789-2.523-4.639c-1.815,1.029-3.173,2.168-4.078,3.418
	c-0.913,1.255-1.358,2.607-1.358,4.063c0,1.61,0.522,3.025,1.555,4.248c1.037,1.227,2.435,1.84,4.188,1.84
	c0.955,0,1.867-0.189,2.748-0.578C122.311,29.334,123.512,28.523,125.023,27.289z M121.551,13.19
	c1.861-0.876,3.266-1.879,4.188-3.013c0.928-1.126,1.387-2.387,1.387-3.769c0-1.084-0.332-1.981-1.012-2.692
	c-0.666-0.709-1.504-1.062-2.492-1.062c-1.311,0-2.299,0.456-2.971,1.371c-0.668,0.916-1.008,1.803-1.008,2.663
	c0,0.75,0.123,1.574,0.377,2.478C120.273,10.074,120.773,11.419,121.551,13.19z"/>
<path d="M173.852,23.841l0.752,0.171l-2.633,8.298h-23.684v-0.844h1.148c1.289,0,2.213-0.422,2.777-1.26
	c0.313-0.484,0.471-1.6,0.471-3.34V7.136c0-1.921-0.215-3.118-0.643-3.587c-0.578-0.672-1.451-1.011-2.605-1.011h-1.148V1.696
	h13.846v0.842c-1.621-0.018-2.77,0.133-3.42,0.449c-0.658,0.318-1.102,0.724-1.326,1.206c-0.246,0.487-0.355,1.636-0.355,3.447
	v19.227c0,1.258,0.109,2.115,0.336,2.578c0.186,0.324,0.465,0.557,0.842,0.707c0.371,0.15,1.553,0.223,3.531,0.223h2.215
	c2.354,0,4.004-0.172,4.945-0.518s1.807-0.959,2.598-1.84C172.279,27.146,173.064,25.75,173.852,23.841z"/>
<path d="M186.363,3.38v12.081h6.699c1.758,0,2.922-0.26,3.506-0.784c0.783-0.69,1.217-1.907,1.316-3.645h0.844v10.65h-0.844
	c-0.209-1.49-0.422-2.442-0.643-2.857c-0.266-0.542-0.701-0.96-1.318-1.261c-0.621-0.299-1.57-0.451-2.861-0.451h-6.699v10.095
	c0,1.367,0.057,2.191,0.168,2.482c0.115,0.285,0.324,0.518,0.633,0.686c0.313,0.166,0.885,0.252,1.723,0.252h5.188
	c1.713,0,2.971-0.117,3.754-0.354c0.787-0.227,1.543-0.703,2.271-1.412c0.932-0.934,1.885-2.346,2.859-4.233h0.895l-2.629,7.682
	h-23.582v-0.844h1.068c0.73,0,1.418-0.17,2.074-0.504c0.463-0.24,0.789-0.607,0.967-1.098c0.178-0.479,0.268-1.461,0.268-2.938
	V7.024c0-1.924-0.197-3.118-0.586-3.587c-0.547-0.597-1.455-0.898-2.723-0.898h-1.068V1.696h23.582l0.334,6.729h-0.869
	c-0.324-1.625-0.672-2.737-1.051-3.337c-0.387-0.594-0.953-1.052-1.697-1.372c-0.617-0.226-1.684-0.337-3.193-0.337H186.363z"/>
<path d="M216.229,3.38v12.081h6.703c1.742,0,2.914-0.26,3.494-0.784c0.787-0.69,1.225-1.907,1.318-3.645h0.846v10.65h-0.846
	c-0.201-1.49-0.418-2.442-0.643-2.857c-0.268-0.542-0.703-0.96-1.314-1.261c-0.621-0.299-1.57-0.451-2.855-0.451h-6.703v10.095
	c0,1.367,0.053,2.191,0.166,2.482c0.113,0.285,0.32,0.518,0.627,0.686c0.313,0.166,0.885,0.252,1.732,0.252h5.176
	c1.723,0,2.973-0.117,3.764-0.354c0.785-0.227,1.539-0.703,2.266-1.412c0.936-0.934,1.889-2.346,2.863-4.233h0.893l-2.635,7.682
	h-23.572v-0.844h1.064c0.729,0,1.418-0.17,2.074-0.504c0.465-0.24,0.783-0.607,0.969-1.098c0.174-0.479,0.26-1.461,0.26-2.938V7.024
	c0-1.924-0.191-3.118-0.588-3.587c-0.541-0.597-1.443-0.898-2.715-0.898h-1.064V1.696h23.572l0.338,6.729h-0.867
	c-0.326-1.625-0.676-2.737-1.055-3.337c-0.381-0.594-0.951-1.052-1.697-1.372c-0.615-0.226-1.678-0.337-3.189-0.337H216.229z"/>
<g>
	<path d="M28.4,51.277c0,0.315-0.044,0.613-0.131,0.892c-0.088,0.279-0.216,0.534-0.385,0.766c-0.175,0.236-0.385,0.444-0.63,0.621
		c-0.245,0.178-0.526,0.326-0.842,0.444l-0.423-0.55c0.22-0.118,0.415-0.252,0.584-0.401s0.313-0.312,0.431-0.486
		c0.113-0.169,0.199-0.354,0.258-0.554c0.06-0.2,0.089-0.413,0.089-0.639v-4.515c0-0.152-0.004-0.298-0.013-0.436
		c-0.008-0.138-0.018-0.283-0.029-0.436h1.133c-0.017,0.152-0.028,0.298-0.033,0.436c-0.006,0.138-0.009,0.283-0.009,0.436V51.277z"
		/>
	<path d="M38.36,51.996c0.006-0.152,0.009-0.315,0.009-0.49v-4.523c0-0.175-0.003-0.34-0.009-0.495
		c-0.006-0.154-0.017-0.322-0.033-0.503h2.747c0.164,0,0.305-0.001,0.423-0.004c0.119-0.003,0.263-0.013,0.432-0.03l-0.102,0.947
		c-0.085-0.006-0.159-0.011-0.224-0.017c-0.065-0.006-0.129-0.009-0.19-0.009c-0.063-0.005-0.126-0.008-0.19-0.008
		c-0.065,0-0.137,0-0.216,0h-1.598v1.775h1.158c0.157,0,0.305-0.002,0.439-0.005c0.136-0.002,0.285-0.013,0.448-0.029v0.955
		c-0.169-0.017-0.318-0.026-0.448-0.029s-0.276-0.004-0.439-0.004h-1.142v2.029h1.522c0.197,0,0.376-0.002,0.536-0.005
		c0.161-0.002,0.343-0.013,0.546-0.029v0.989c-0.203-0.012-0.385-0.02-0.546-0.025c-0.16-0.006-0.339-0.009-0.536-0.009h-2.621
		C38.344,52.309,38.354,52.148,38.36,51.996z"/>
	<path d="M55.728,52.512l-0.668-3.01c-0.034-0.152-0.066-0.311-0.098-0.474s-0.061-0.33-0.089-0.499s-0.057-0.341-0.084-0.516
		c-0.028-0.175-0.057-0.347-0.085-0.516c-0.034,0.169-0.063,0.325-0.085,0.469c-0.022,0.145-0.048,0.292-0.076,0.444
		c-0.022,0.152-0.049,0.313-0.08,0.481c-0.031,0.17-0.069,0.361-0.114,0.575l-0.625,3.044h-1.234l-1.311-5.538
		c-0.051-0.191-0.095-0.355-0.132-0.49c-0.036-0.136-0.086-0.302-0.147-0.499h1.209c0.017,0.197,0.036,0.363,0.06,0.499
		c0.022,0.135,0.056,0.299,0.101,0.49l0.44,2.038c0.033,0.163,0.064,0.335,0.093,0.516s0.06,0.363,0.093,0.55
		c0.028,0.186,0.058,0.375,0.089,0.566s0.066,0.38,0.105,0.566c0.034-0.187,0.063-0.358,0.089-0.516
		c0.025-0.158,0.053-0.316,0.08-0.474c0.028-0.164,0.06-0.336,0.094-0.516c0.033-0.181,0.076-0.387,0.127-0.617l0.668-3.104h1.184
		l0.676,3.229c0.022,0.119,0.047,0.251,0.072,0.397c0.025,0.147,0.052,0.302,0.08,0.466c0.022,0.163,0.05,0.335,0.08,0.516
		c0.031,0.181,0.063,0.363,0.098,0.55c0.034-0.192,0.066-0.369,0.098-0.533c0.03-0.163,0.061-0.33,0.088-0.499
		c0.034-0.169,0.069-0.348,0.106-0.537c0.036-0.188,0.08-0.401,0.131-0.638l0.423-1.962c0.039-0.191,0.068-0.355,0.089-0.49
		c0.02-0.136,0.041-0.302,0.063-0.499h1.184c-0.067,0.197-0.118,0.363-0.152,0.499c-0.034,0.135-0.073,0.299-0.118,0.49
		l-1.311,5.538H55.728z"/>
	<path d="M67.784,51.996c0.006-0.152,0.009-0.315,0.009-0.49v-4.523c0-0.175-0.003-0.34-0.009-0.495
		c-0.006-0.154-0.017-0.322-0.033-0.503h2.747c0.164,0,0.305-0.001,0.423-0.004c0.119-0.003,0.263-0.013,0.432-0.03l-0.102,0.947
		c-0.085-0.006-0.159-0.011-0.224-0.017c-0.065-0.006-0.129-0.009-0.19-0.009c-0.063-0.005-0.126-0.008-0.19-0.008
		c-0.065,0-0.137,0-0.216,0h-1.598v1.775h1.158c0.157,0,0.305-0.002,0.439-0.005c0.136-0.002,0.285-0.013,0.448-0.029v0.955
		c-0.169-0.017-0.318-0.026-0.448-0.029s-0.276-0.004-0.439-0.004H68.85v2.029h1.522c0.197,0,0.376-0.002,0.536-0.005
		c0.161-0.002,0.343-0.013,0.546-0.029v0.989c-0.203-0.012-0.385-0.02-0.546-0.025c-0.16-0.006-0.339-0.009-0.536-0.009h-2.621
		C67.768,52.309,67.778,52.148,67.784,51.996z"/>
	<path d="M81.012,46.429c-0.008-0.139-0.018-0.283-0.029-0.436h1.133c-0.017,0.152-0.028,0.297-0.033,0.436
		c-0.006,0.138-0.009,0.283-0.009,0.436v4.726h1.479c0.158,0,0.309-0.001,0.452-0.004c0.145-0.003,0.298-0.013,0.461-0.029
		l-0.135,0.955c-0.164-0.012-0.317-0.02-0.461-0.025s-0.295-0.009-0.452-0.009h-2.452c0.006-0.073,0.011-0.144,0.017-0.211
		s0.012-0.138,0.018-0.211c0.005-0.068,0.011-0.136,0.017-0.203c0.005-0.067,0.008-0.141,0.008-0.22v-4.769
		C81.024,46.712,81.021,46.566,81.012,46.429z"/>
	<path d="M96.607,50.072c0.163,0.212,0.355,0.495,0.575,0.85l0.431,0.702c0.102,0.169,0.192,0.313,0.271,0.432
		c0.079,0.118,0.178,0.259,0.296,0.422h-1.344c-0.034-0.067-0.065-0.132-0.093-0.194c-0.028-0.062-0.054-0.121-0.076-0.177
		c-0.028-0.057-0.059-0.114-0.089-0.174c-0.031-0.06-0.066-0.125-0.105-0.198l-0.152-0.263c-0.22-0.372-0.422-0.693-0.604-0.964
		c-0.184-0.271-0.354-0.484-0.512-0.643c-0.063-0.051-0.131-0.094-0.207-0.131s-0.156-0.058-0.241-0.063v1.937
		c0,0.152,0.003,0.297,0.009,0.436c0.005,0.138,0.017,0.283,0.033,0.435H93.69c0.012-0.151,0.021-0.297,0.029-0.435
		c0.009-0.139,0.013-0.283,0.013-0.436v-4.608c0-0.181-0.004-0.348-0.013-0.503c-0.008-0.155-0.021-0.325-0.038-0.512h1.996
		c0.299,0,0.577,0.042,0.837,0.127c0.259,0.085,0.484,0.203,0.676,0.355c0.187,0.163,0.333,0.36,0.44,0.592
		c0.106,0.23,0.16,0.493,0.16,0.786c0,0.236-0.036,0.462-0.109,0.677c-0.073,0.214-0.178,0.402-0.313,0.566
		c-0.141,0.169-0.313,0.301-0.516,0.397c-0.203,0.096-0.431,0.144-0.685,0.144C96.298,49.713,96.444,49.861,96.607,50.072z
		 M94.756,48.91h0.601c0.253,0,0.468-0.024,0.643-0.072s0.313-0.119,0.414-0.216c0.102-0.084,0.173-0.191,0.216-0.321
		c0.042-0.129,0.063-0.278,0.063-0.447c0-0.164-0.028-0.309-0.085-0.436s-0.138-0.232-0.245-0.317
		c-0.118-0.079-0.26-0.14-0.423-0.182s-0.355-0.063-0.575-0.063h-0.608V48.91z"/>
	<path d="M109.603,51.522c0,0.146,0.002,0.296,0.005,0.448c0.002,0.152,0.015,0.321,0.038,0.507h-1.167
		c0.017-0.18,0.028-0.346,0.034-0.498c0.005-0.152,0.008-0.299,0.008-0.44v-1.683l-1.589-3.001
		c-0.091-0.169-0.171-0.314-0.241-0.436s-0.159-0.267-0.267-0.436h1.361c0.063,0.169,0.118,0.314,0.169,0.436
		s0.118,0.267,0.203,0.436l0.566,1.167c0.057,0.13,0.114,0.265,0.174,0.405c0.059,0.142,0.119,0.296,0.182,0.465
		c0.017-0.045,0.038-0.097,0.063-0.156c0.025-0.059,0.055-0.125,0.089-0.198c0.027-0.067,0.061-0.144,0.097-0.229
		c0.037-0.085,0.08-0.175,0.131-0.271l0.575-1.184c0.039-0.085,0.074-0.161,0.105-0.229s0.063-0.135,0.098-0.203
		c0.027-0.067,0.056-0.137,0.084-0.207s0.06-0.147,0.093-0.232h1.311c-0.112,0.169-0.205,0.314-0.278,0.436
		s-0.152,0.267-0.237,0.436l-1.606,3.01V51.522z"/>
	<path d="M136.436,51.983c-0.003-0.138-0.007-0.306-0.013-0.503l-0.16-3.027c-0.012-0.102-0.021-0.203-0.025-0.304
		c-0.006-0.102-0.012-0.203-0.018-0.305c0-0.102-0.001-0.204-0.004-0.309s-0.004-0.216-0.004-0.334
		c-0.057,0.254-0.107,0.474-0.152,0.659c-0.045,0.187-0.091,0.355-0.136,0.508l-1.175,4.108h-0.896l-1.074-3.932
		c-0.067-0.236-0.126-0.476-0.177-0.718c-0.051-0.243-0.088-0.445-0.11-0.609c-0.012,0.102-0.02,0.199-0.025,0.292
		s-0.014,0.19-0.025,0.292c-0.006,0.106-0.013,0.221-0.021,0.342c-0.009,0.121-0.016,0.258-0.021,0.41l-0.144,2.926
		c-0.006,0.102-0.012,0.191-0.018,0.271c-0.005,0.079-0.008,0.155-0.008,0.229c0,0.078,0,0.157,0,0.236s0.005,0.166,0.017,0.262
		h-1.116c0.017-0.096,0.031-0.183,0.042-0.262c0.012-0.079,0.021-0.158,0.025-0.236c0.012-0.073,0.021-0.149,0.025-0.229
		c0.006-0.079,0.015-0.169,0.025-0.271l0.355-4.549c0.006-0.09,0.012-0.174,0.017-0.25c0.006-0.076,0.012-0.15,0.018-0.224
		c0-0.067,0.001-0.14,0.004-0.216s0.004-0.162,0.004-0.258h1.438l0.998,3.678c0.039,0.158,0.08,0.333,0.122,0.524
		c0.043,0.191,0.089,0.412,0.14,0.659c0.022-0.196,0.056-0.39,0.098-0.579c0.042-0.188,0.092-0.385,0.147-0.587l1.023-3.695h1.438
		c-0.006,0.096-0.009,0.182-0.009,0.258s0.003,0.148,0.009,0.216c0.005,0.073,0.01,0.147,0.013,0.224s0.01,0.16,0.021,0.25
		l0.339,4.549c0.011,0.197,0.025,0.365,0.042,0.503s0.042,0.303,0.076,0.494h-1.116C136.435,52.286,136.438,52.121,136.436,51.983z"
		/>
	<path d="M151.675,50.66c0,0.271-0.043,0.522-0.131,0.757c-0.087,0.233-0.221,0.436-0.401,0.604
		c-0.187,0.181-0.419,0.319-0.697,0.419c-0.279,0.098-0.613,0.147-1.002,0.147c-0.372,0-0.698-0.039-0.977-0.118
		c-0.279-0.079-0.512-0.2-0.698-0.363c-0.186-0.152-0.325-0.35-0.418-0.593c-0.093-0.242-0.14-0.523-0.14-0.845v-3.813
		c0-0.152-0.004-0.298-0.013-0.436s-0.019-0.283-0.029-0.436h1.141c-0.017,0.152-0.027,0.298-0.033,0.436s-0.009,0.283-0.009,0.436
		v3.492c0,0.22,0.021,0.411,0.063,0.574c0.042,0.164,0.114,0.299,0.216,0.406c0.09,0.118,0.21,0.206,0.359,0.262
		c0.149,0.057,0.328,0.085,0.537,0.085c0.197,0,0.369-0.025,0.516-0.076s0.271-0.133,0.372-0.245
		c0.096-0.102,0.169-0.236,0.22-0.406c0.051-0.169,0.076-0.369,0.076-0.6v-3.492c0-0.152-0.005-0.298-0.013-0.436
		c-0.009-0.138-0.019-0.283-0.029-0.436h1.133c-0.018,0.152-0.028,0.298-0.034,0.436s-0.009,0.283-0.009,0.436V50.66z"/>
	<path d="M165.513,51.303c-0.11,0.254-0.27,0.474-0.478,0.659c-0.215,0.197-0.478,0.353-0.791,0.466
		c-0.313,0.112-0.675,0.169-1.086,0.169c-0.192,0-0.381-0.012-0.566-0.034c-0.187-0.022-0.364-0.06-0.533-0.109
		c-0.181-0.046-0.355-0.104-0.524-0.174s-0.332-0.156-0.49-0.258l0.406-0.82c0.152,0.085,0.301,0.161,0.448,0.229
		c0.146,0.067,0.296,0.121,0.447,0.16c0.142,0.051,0.284,0.086,0.428,0.106c0.144,0.02,0.283,0.029,0.418,0.029
		c0.203,0,0.384-0.024,0.541-0.072c0.158-0.048,0.296-0.116,0.415-0.207c0.106-0.084,0.189-0.19,0.249-0.316
		c0.06-0.127,0.089-0.272,0.089-0.436c0-0.113-0.021-0.219-0.063-0.317s-0.103-0.19-0.182-0.274
		c-0.085-0.079-0.188-0.149-0.309-0.212c-0.121-0.062-0.261-0.115-0.419-0.16l-0.693-0.195c-0.253-0.067-0.476-0.156-0.668-0.266
		c-0.191-0.11-0.35-0.238-0.474-0.385c-0.129-0.141-0.225-0.302-0.287-0.482c-0.062-0.18-0.093-0.38-0.093-0.6
		c0-0.271,0.052-0.523,0.156-0.757c0.104-0.234,0.252-0.438,0.444-0.613c0.186-0.169,0.414-0.303,0.685-0.401
		s0.572-0.148,0.904-0.148c0.384,0,0.744,0.051,1.083,0.152c0.338,0.102,0.656,0.254,0.955,0.457l-0.474,0.761
		c-0.282-0.164-0.55-0.286-0.803-0.368c-0.254-0.081-0.496-0.122-0.728-0.122c-0.164,0-0.312,0.021-0.444,0.063
		c-0.132,0.042-0.243,0.1-0.334,0.173c-0.096,0.085-0.169,0.181-0.22,0.287c-0.051,0.107-0.076,0.226-0.076,0.355
		c0,0.113,0.022,0.212,0.068,0.296c0.045,0.085,0.109,0.158,0.194,0.22c0.079,0.067,0.17,0.124,0.274,0.169
		c0.104,0.046,0.216,0.085,0.334,0.119l0.77,0.22c0.265,0.079,0.497,0.176,0.697,0.291c0.2,0.116,0.368,0.25,0.503,0.402
		c0.13,0.157,0.228,0.332,0.292,0.523c0.064,0.192,0.098,0.403,0.098,0.635C165.678,50.787,165.622,51.049,165.513,51.303z"/>
	<path d="M175.273,51.996c0.006-0.152,0.009-0.315,0.009-0.49v-4.523c0-0.175-0.003-0.34-0.009-0.495
		c-0.006-0.154-0.017-0.322-0.034-0.503h2.748c0.163,0,0.305-0.001,0.423-0.004s0.262-0.013,0.432-0.03l-0.102,0.947
		c-0.085-0.006-0.159-0.011-0.225-0.017c-0.064-0.006-0.128-0.009-0.19-0.009c-0.062-0.005-0.125-0.008-0.189-0.008
		c-0.065,0-0.137,0-0.216,0h-1.598v1.775h1.158c0.157,0,0.304-0.002,0.439-0.005c0.135-0.002,0.284-0.013,0.448-0.029v0.955
		c-0.169-0.017-0.318-0.026-0.448-0.029s-0.276-0.004-0.439-0.004h-1.142v2.029h1.521c0.197,0,0.377-0.002,0.537-0.005
		c0.161-0.002,0.343-0.013,0.546-0.029v0.989c-0.203-0.012-0.385-0.02-0.546-0.025c-0.16-0.006-0.34-0.009-0.537-0.009h-2.621
		C175.257,52.309,175.268,52.148,175.273,51.996z"/>
	<path d="M192.937,50.66c0,0.271-0.043,0.522-0.131,0.757c-0.087,0.233-0.221,0.436-0.401,0.604
		c-0.187,0.181-0.419,0.319-0.697,0.419c-0.279,0.098-0.613,0.147-1.002,0.147c-0.372,0-0.698-0.039-0.977-0.118
		c-0.279-0.079-0.512-0.2-0.698-0.363c-0.186-0.152-0.325-0.35-0.418-0.593c-0.093-0.242-0.14-0.523-0.14-0.845v-3.813
		c0-0.152-0.004-0.298-0.013-0.436s-0.019-0.283-0.029-0.436h1.141c-0.017,0.152-0.027,0.298-0.033,0.436s-0.009,0.283-0.009,0.436
		v3.492c0,0.22,0.021,0.411,0.063,0.574c0.042,0.164,0.114,0.299,0.216,0.406c0.09,0.118,0.21,0.206,0.359,0.262
		c0.149,0.057,0.328,0.085,0.537,0.085c0.197,0,0.369-0.025,0.516-0.076s0.271-0.133,0.372-0.245
		c0.096-0.102,0.169-0.236,0.22-0.406c0.051-0.169,0.076-0.369,0.076-0.6v-3.492c0-0.152-0.005-0.298-0.013-0.436
		c-0.009-0.138-0.019-0.283-0.029-0.436h1.133c-0.018,0.152-0.028,0.298-0.034,0.436s-0.009,0.283-0.009,0.436V50.66z"/>
	<path d="M207.906,51.983c-0.003-0.138-0.007-0.306-0.013-0.503l-0.16-3.027c-0.012-0.102-0.021-0.203-0.025-0.304
		c-0.006-0.102-0.012-0.203-0.018-0.305c0-0.102-0.001-0.204-0.004-0.309s-0.004-0.216-0.004-0.334
		c-0.057,0.254-0.107,0.474-0.152,0.659c-0.045,0.187-0.091,0.355-0.136,0.508l-1.175,4.108h-0.896l-1.074-3.932
		c-0.067-0.236-0.126-0.476-0.177-0.718c-0.051-0.243-0.088-0.445-0.11-0.609c-0.012,0.102-0.02,0.199-0.025,0.292
		s-0.014,0.19-0.025,0.292c-0.006,0.106-0.013,0.221-0.021,0.342c-0.009,0.121-0.016,0.258-0.021,0.41l-0.144,2.926
		c-0.006,0.102-0.012,0.191-0.018,0.271c-0.005,0.079-0.008,0.155-0.008,0.229c0,0.078,0,0.157,0,0.236s0.005,0.166,0.017,0.262
		h-1.116c0.017-0.096,0.031-0.183,0.042-0.262c0.012-0.079,0.021-0.158,0.025-0.236c0.012-0.073,0.021-0.149,0.025-0.229
		c0.006-0.079,0.015-0.169,0.025-0.271l0.355-4.549c0.006-0.09,0.012-0.174,0.017-0.25c0.006-0.076,0.012-0.15,0.018-0.224
		c0-0.067,0.001-0.14,0.004-0.216s0.004-0.162,0.004-0.258h1.438l0.998,3.678c0.039,0.158,0.08,0.333,0.122,0.524
		c0.043,0.191,0.089,0.412,0.14,0.659c0.022-0.196,0.056-0.39,0.098-0.579c0.042-0.188,0.092-0.385,0.147-0.587l1.023-3.695h1.438
		c-0.006,0.096-0.009,0.182-0.009,0.258s0.003,0.148,0.009,0.216c0.005,0.073,0.01,0.147,0.013,0.224s0.01,0.16,0.021,0.25
		l0.339,4.549c0.011,0.197,0.025,0.365,0.042,0.503s0.042,0.303,0.076,0.494h-1.116C207.905,52.286,207.909,52.121,207.906,51.983z"
		/>
</g>
</svg>
